<svg width="114" height="65" xmlns="http://www.w3.org/2000/svg" xmlns:xlink="http://www.w3.org/1999/xlink" xml:space="preserve" overflow="hidden"><defs><clipPath id="clip0"><rect x="821" y="843" width="114" height="65"/></clipPath></defs><g clip-path="url(#clip0)" transform="translate(-821 -843)"><path d="M113.866 41.0959C113.832 40.8165 113.687 40.5371 113.441 40.3582L104.209 33.2612C104.981 31.3388 105.26 29.2376 104.981 27.1141 104.556 23.8618 102.891 20.9671 100.286 18.9553 99.6718 18.4859 99.0235 18.0835 98.3529 17.7482L98.3529 5.58824C98.3529 2.50353 95.8494 0 92.7647 0L12.2941 0C9.20941 0 6.70588 2.50353 6.70588 5.58824L6.70588 52.5294 0 52.5294 0 59.2353C0 62.32 2.50353 64.8235 5.58824 64.8235L98.3529 64.8235C101.438 64.8235 103.941 62.32 103.941 59.2353L103.941 52.5294 98.3529 52.5294 98.3529 39.6429C98.9677 39.33 99.5488 38.9724 100.108 38.5476L109.351 45.6559C109.451 45.7341 109.563 45.79 109.675 45.8347 109.786 45.8682 109.909 45.8906 110.032 45.8906 110.2 45.8906 110.368 45.8571 110.524 45.7788 110.681 45.7006 110.815 45.6 110.926 45.4547L113.654 41.9118C113.844 41.6659 113.911 41.3753 113.877 41.0847ZM111.195 41.4424 109.831 43.2194 101.806 37.05C102.064 36.7818 102.309 36.5024 102.544 36.2006 102.779 35.8988 102.98 35.5971 103.181 35.2841L111.195 41.4535ZM102.768 27.3935C103.114 30.0535 102.399 32.7024 100.767 34.8259 97.3806 39.2182 91.0547 40.0453 86.6624 36.6588 82.27 33.2724 81.4429 26.9465 84.8294 22.5541 88.2159 18.1618 94.5418 17.3347 98.9341 20.71 101.069 22.3529 102.432 24.7224 102.779 27.3824ZM101.706 59.2353C101.706 61.0794 100.197 62.5882 98.3529 62.5882L5.58824 62.5882C3.74412 62.5882 2.23529 61.0794 2.23529 59.2353L2.23529 54.7647 41.7329 54.7647 43.3424 58.5535C43.5212 58.9671 43.9235 59.2353 44.3706 59.2353L60.6882 59.2353C61.1353 59.2353 61.5376 58.9671 61.7165 58.5535L63.3259 54.7647 101.706 54.7647 101.706 59.2353ZM44.1582 54.7647 60.9006 54.7647 59.9506 57 45.1082 57 44.1582 54.7647ZM96.1176 52.5294 8.94118 52.5294 8.94118 5.58824C8.94118 3.74412 10.45 2.23529 12.2941 2.23529L92.7647 2.23529C94.6088 2.23529 96.1176 3.74412 96.1176 5.58824L96.1176 16.8765C91.4235 15.5688 86.1929 17.1112 83.0412 21.2018L83.0412 21.2018C78.9059 26.5776 79.9118 34.3118 85.2876 38.4471 87.5118 40.1571 90.1494 40.9953 92.7647 40.9953 93.8935 40.9953 95.0223 40.8165 96.1065 40.5147L96.1065 52.5294Z" transform="matrix(1 0 0 1.00272 821.061 843)"/><path d="M71.6859 23.2471C69.9312 23.2471 68.4671 24.4318 67.9753 26.03L62.5324 26.03C62.7782 25.5271 62.9235 24.9571 62.9235 24.3647L62.9235 21.5818C62.9235 21.3582 62.8453 21.1682 62.7335 21.0006L64.3094 19.4135C64.8571 19.7041 65.4718 19.8941 66.1423 19.8941 68.2882 19.8941 70.0318 18.1394 70.0318 15.9935 70.0318 13.8476 68.2882 12.0929 66.1423 12.0929 63.9965 12.0929 62.2529 13.8476 62.2529 15.9935 62.2529 16.6641 62.4318 17.2788 62.7335 17.8376L60.1294 20.4529 57 20.4529C57.2459 19.95 57.3912 19.38 57.3912 18.7876L57.3912 16.5412C59.1459 16.1612 60.4535 14.5965 60.4535 12.73 60.4535 10.5841 58.71 8.82941 56.5641 8.82941 54.4182 8.82941 52.6747 10.5841 52.6747 12.73 52.6747 14.3841 53.7029 15.7812 55.1447 16.3512L55.1447 18.7765C55.1447 19.6929 54.4071 20.4418 53.4906 20.4418L49.4782 20.4418C48.5618 20.4418 47.8241 19.6929 47.8241 18.7765L47.8241 16.4294C49.4 15.9265 50.5512 14.4735 50.5512 12.73 50.5512 10.5841 48.8076 8.82941 46.6618 8.82941 44.5159 8.82941 42.7724 10.5841 42.7724 12.73 42.7724 14.5071 43.9682 15.9935 45.5888 16.4629L45.5888 18.7876C45.5888 19.3912 45.7341 19.95 45.98 20.4529L42.8506 20.4529 40.2465 17.8376C40.5482 17.29 40.7271 16.6641 40.7271 15.9935 40.7271 13.8476 38.9835 12.0929 36.8376 12.0929 34.6918 12.0929 32.9482 13.8476 32.9482 15.9935 32.9482 18.1394 34.6918 19.8941 36.8376 19.8941 37.4971 19.8941 38.1229 19.7153 38.6706 19.4135L40.2465 21.0006C40.1459 21.1682 40.0676 21.3582 40.0676 21.5706L40.0676 24.3647C40.0676 24.9682 40.2129 25.5271 40.4588 26.03L35.0047 26.03C34.5241 24.4206 33.0488 23.2471 31.2941 23.2471 29.1482 23.2471 27.4047 25.0018 27.4047 27.1476 27.4047 29.2935 29.1482 31.0482 31.2941 31.0482 33.0488 31.0482 34.5129 29.8635 35.0047 28.2653L40.4476 28.2653C40.2018 28.7682 40.0565 29.3382 40.0565 29.9306L40.0565 32.7135C40.0565 32.9371 40.1347 33.1271 40.2465 33.2947L38.6706 34.8818C38.1229 34.5912 37.5082 34.4012 36.8376 34.4012 34.6918 34.4012 32.9482 36.1559 32.9482 38.3018 32.9482 40.4476 34.6918 42.2024 36.8376 42.2024 38.9835 42.2024 40.7271 40.4476 40.7271 38.3018 40.7271 37.6312 40.5482 37.0165 40.2465 36.4576L42.8506 33.8424 45.98 33.8424C45.7341 34.3453 45.5888 34.9153 45.5888 35.5076L45.5888 37.7206C43.9682 38.19 42.7724 39.6765 42.7724 41.4535 42.7724 43.5994 44.5159 45.3541 46.6618 45.3541 48.8076 45.3541 50.5512 43.5994 50.5512 41.4535 50.5512 39.71 49.4 38.2459 47.8241 37.7541L47.8241 35.5188C47.8241 34.6024 48.5618 33.8535 49.4782 33.8535L53.4906 33.8535C54.3959 33.8535 55.1447 34.6024 55.1447 35.5188L55.1447 37.8324C53.7029 38.4024 52.6747 39.8106 52.6747 41.4535 52.6747 43.5994 54.4182 45.3541 56.5641 45.3541 58.71 45.3541 60.4535 43.5994 60.4535 41.4535 60.4535 39.5871 59.1347 38.0224 57.3912 37.6424L57.3912 35.5076C57.3912 34.9041 57.2459 34.3453 57 33.8424L60.1294 33.8424 62.7335 36.4576C62.4318 37.0053 62.2529 37.6312 62.2529 38.3018 62.2529 40.4476 63.9965 42.2024 66.1423 42.2024 68.2882 42.2024 70.0318 40.4476 70.0318 38.3018 70.0318 36.1559 68.2882 34.4012 66.1423 34.4012 65.4829 34.4012 64.8571 34.58 64.3094 34.8818L62.7335 33.2947C62.8341 33.1271 62.9124 32.9371 62.9124 32.7247L62.9124 29.9306C62.9124 29.3271 62.7671 28.7682 62.5212 28.2653L67.9753 28.2653C68.4559 29.8747 69.9312 31.0482 71.6859 31.0482 73.8318 31.0482 75.5753 29.2935 75.5753 27.1476 75.5753 25.0018 73.8318 23.2471 71.6859 23.2471ZM56.5529 11.0647C57.4582 11.0647 58.2071 11.8135 58.2071 12.73 58.2071 13.6465 57.4694 14.3953 56.5529 14.3953 55.6365 14.3953 54.8988 13.6465 54.8988 12.73 54.8988 11.8135 55.6365 11.0647 56.5529 11.0647ZM45.0076 12.73C45.0076 11.8135 45.7453 11.0647 46.6618 11.0647 47.5782 11.0647 48.3159 11.8135 48.3159 12.73 48.3159 13.6465 47.5782 14.3953 46.6618 14.3953 45.7453 14.3953 45.0076 13.6465 45.0076 12.73ZM48.3159 41.4535C48.3159 42.37 47.5782 43.1188 46.6618 43.1188 45.7453 43.1188 45.0076 42.37 45.0076 41.4535 45.0076 40.5371 45.7453 39.7882 46.6618 39.7882 47.5782 39.7882 48.3159 40.5371 48.3159 41.4535ZM58.2071 41.4535C58.2071 42.37 57.4694 43.1188 56.5529 43.1188 55.6365 43.1188 54.8988 42.37 54.8988 41.4535 54.8988 40.5371 55.6365 39.7882 56.5529 39.7882 57.4694 39.7882 58.2071 40.5371 58.2071 41.4535ZM66.1423 14.3282C67.0476 14.3282 67.7965 15.0771 67.7965 15.9935 67.7965 16.91 67.0588 17.6588 66.1423 17.6588 65.2259 17.6588 64.4882 16.91 64.4882 15.9935 64.4882 15.0771 65.2259 14.3282 66.1423 14.3282ZM49.4782 22.6882 60.5876 22.6882C60.5876 22.6882 60.6547 22.6659 60.6882 22.6659L60.6882 24.3647C60.6882 25.2812 59.9506 26.03 59.0341 26.03L43.9347 26.03C43.0182 26.03 42.2806 25.2812 42.2806 24.3647L42.2806 22.6659C42.2806 22.6659 42.3365 22.6882 42.37 22.6882L49.4671 22.6882ZM35.1724 15.9935C35.1724 15.0771 35.91 14.3282 36.8265 14.3282 37.7429 14.3282 38.4806 15.0771 38.4806 15.9935 38.4806 16.91 37.7429 17.6588 36.8265 17.6588 35.91 17.6588 35.1724 16.91 35.1724 15.9935ZM31.2718 28.8129C30.3665 28.8129 29.6176 28.0641 29.6176 27.1476 29.6176 26.2312 30.3553 25.4824 31.2718 25.4824 32.1882 25.4824 32.9259 26.2312 32.9259 27.1476 32.9259 28.0641 32.1882 28.8129 31.2718 28.8129ZM36.8265 39.9671C35.9212 39.9671 35.1724 39.2182 35.1724 38.3018 35.1724 37.3853 35.91 36.6365 36.8265 36.6365 37.7429 36.6365 38.4806 37.3853 38.4806 38.3018 38.4806 39.2182 37.7429 39.9671 36.8265 39.9671ZM53.4906 31.6071 42.3812 31.6071C42.3812 31.6071 42.3141 31.6294 42.2806 31.6294L42.2806 29.9306C42.2806 29.0141 43.0182 28.2653 43.9347 28.2653L59.0341 28.2653C59.9394 28.2653 60.6882 29.0141 60.6882 29.9306L60.6882 31.6294C60.6882 31.6294 60.6324 31.6071 60.5988 31.6071L53.5018 31.6071ZM67.7965 38.3018C67.7965 39.2182 67.0588 39.9671 66.1423 39.9671 65.2259 39.9671 64.4882 39.2182 64.4882 38.3018 64.4882 37.3853 65.2259 36.6365 66.1423 36.6365 67.0588 36.6365 67.7965 37.3853 67.7965 38.3018ZM71.6971 28.8129C70.7806 28.8129 70.0429 28.0641 70.0429 27.1476 70.0429 26.2312 70.7806 25.4824 71.6971 25.4824 72.6135 25.4824 73.3512 26.2312 73.3512 27.1476 73.3512 28.0641 72.6135 28.8129 71.6971 28.8129Z" transform="matrix(1 0 0 1.00272 821.061 843)"/></g></svg>