<svg width="92" height="104" xmlns="http://www.w3.org/2000/svg" xmlns:xlink="http://www.w3.org/1999/xlink" xml:space="preserve" overflow="hidden"><defs><clipPath id="clip0"><rect x="999" y="671" width="92" height="104"/></clipPath></defs><g clip-path="url(#clip0)" transform="translate(-999 -671)"><path d="M92 34.5524C92 24.8583 84.2028 16.9619 74.5639 16.7854 73.1192 9.51762 66.6675 4.15776 59.1791 4.15776 56.5984 4.15776 54.0619 4.79741 51.801 5.99952 47.919 2.12851 42.7907 0.0110285 37.2544 0.0110285 27.3508 0.0110285 18.7816 7.16854 16.9509 16.8075 7.53249 17.2266 0 25.0237 0 34.5524 0 44.081 7.24574 51.5143 16.3553 52.2421L16.3553 54.8118C16.3553 56.2896 17.3369 57.5248 18.6713 57.9549L18.6713 63.4802C17.3369 63.9103 16.3553 65.1455 16.3553 66.6234L16.3553 73.7809C16.3553 75.6006 17.8442 77.0894 19.6639 77.0894L35.2472 77.0894 35.2472 86.7945 29.4793 86.7945C28.983 84.6881 27.0861 83.1 24.8252 83.1 22.1784 83.1 20.0278 85.2505 20.0278 87.8974 20.0278 90.5442 22.1784 92.6948 24.8252 92.6948 27.0861 92.6948 28.983 91.1177 29.4793 89.0002L36.35 89.0002C36.9566 89.0002 37.4529 88.504 37.4529 87.8974L37.4529 77.0894 44.9082 77.0894 44.9082 93.2352C42.7907 93.7315 41.2136 95.6284 41.2136 97.8892 41.2136 100.536 43.3642 102.687 46.011 102.687 48.6579 102.687 50.8084 100.536 50.8084 97.8892 50.8084 95.6284 49.2314 93.7315 47.1139 93.2352L47.1139 77.0894 54.5692 77.0894 54.5692 87.8974C54.5692 88.504 55.0655 89.0002 55.672 89.0002L61.7598 89.0002C62.2561 91.1177 64.153 92.6948 66.4138 92.6948 69.0607 92.6948 71.2112 90.5442 71.2112 87.8974 71.2112 85.2505 69.0607 83.1 66.4138 83.1 64.153 83.1 62.2561 84.6771 61.7598 86.7945L56.7749 86.7945 56.7749 77.0894 72.3582 77.0894C74.1779 77.0894 75.6667 75.6006 75.6667 73.7809L75.6667 66.6234C75.6667 65.1455 74.6852 63.9103 73.3508 63.4802L73.3508 57.9549C74.6852 57.5248 75.6667 56.2896 75.6667 54.8118L75.6667 52.2421C84.7763 51.5143 92.0221 43.8053 92.0221 34.5524ZM24.8142 90.467C23.3915 90.467 22.2225 89.309 22.2225 87.8753 22.2225 86.4416 23.3805 85.2836 24.8142 85.2836 26.2479 85.2836 27.4059 86.4416 27.4059 87.8753 27.4059 89.309 26.2479 90.467 24.8142 90.467ZM48.5807 97.8782C48.5807 99.3009 47.4227 100.47 45.989 100.47 44.5553 100.47 43.3973 99.3119 43.3973 97.8782 43.3973 96.4445 44.5553 95.2865 45.989 95.2865 47.4227 95.2865 48.5807 96.4445 48.5807 97.8782ZM66.3807 85.2947C67.8034 85.2947 68.9724 86.4527 68.9724 87.8864 68.9724 89.3201 67.8144 90.4781 66.3807 90.4781 64.947 90.4781 63.789 89.3201 63.789 87.8864 63.789 86.4527 64.947 85.2947 66.3807 85.2947ZM71.112 63.3038 20.877 63.3038 20.877 58.1204 71.134 58.1204 71.134 63.3038ZM73.428 73.7698C73.428 74.3764 72.9317 74.8727 72.3251 74.8727L19.6639 74.8727C19.0573 74.8727 18.561 74.3764 18.561 73.7698L18.561 66.6123C18.561 66.0058 19.0573 65.5095 19.6639 65.5095L72.3472 65.5095C72.9537 65.5095 73.45 66.0058 73.45 66.6123L73.45 73.7698ZM73.428 54.8118C73.428 55.4184 72.9317 55.9146 72.3251 55.9146L19.6639 55.9146C19.0573 55.9146 18.561 55.4184 18.561 54.8118L18.561 47.6543C18.561 47.0477 19.0573 46.5514 19.6639 46.5514L72.3472 46.5514C72.9537 46.5514 73.45 47.0477 73.45 47.6543L73.45 54.8118ZM20.855 39.1623 71.112 39.1623 71.112 44.3457 20.877 44.3457 20.877 39.1623ZM72.3251 36.9566 19.6639 36.9566C19.0573 36.9566 18.561 36.4603 18.561 35.8538L18.561 28.6962C18.561 28.0897 19.0573 27.5934 19.6639 27.5934L72.3472 27.5934C72.9537 27.5934 73.45 28.0897 73.45 28.6962L73.45 35.8538C73.45 36.4603 72.9537 36.9566 72.3472 36.9566ZM75.6337 50.0364 75.6337 47.6433C75.6337 46.1654 74.6521 44.9302 73.3177 44.5001L73.3177 38.9748C74.6521 38.5447 75.6337 37.3095 75.6337 35.8317L75.6337 28.6742C75.6337 26.8545 74.1448 25.3656 72.3251 25.3656L19.6639 25.3656C17.8442 25.3656 16.3553 26.8545 16.3553 28.6742L16.3553 35.8317C16.3553 37.3095 17.3369 38.5447 18.6713 38.9748L18.6713 44.5001C17.3369 44.9302 16.3553 46.1654 16.3553 47.6433L16.3553 50.0364C8.45888 49.3196 2.20571 42.6032 2.20571 34.5634 2.20571 25.9832 9.18677 19.0022 17.767 19.0022L17.8883 19.0022C18.4397 19.0022 18.9029 18.5941 18.9801 18.0537 20.2594 9.03237 28.1117 2.22776 37.2433 2.22776 42.4488 2.22776 47.2573 4.33421 50.7864 8.13906 51.1393 8.52505 51.7238 8.60225 52.176 8.33757 54.3045 7.0362 56.6646 6.37449 59.1791 6.37449 65.8955 6.37449 71.6413 11.4035 72.5457 18.0647 72.6229 18.6382 73.1302 19.0463 73.7037 19.0132 73.8801 19.0132 74.0676 19.0132 74.2441 19.0132 82.8243 19.0132 89.8053 25.9942 89.8053 34.5744 89.8053 42.6142 83.5521 49.3306 75.6557 50.0475Z" transform="matrix(1 0 0 1.00888 999 671.212)"/><path d="M26.9758 30.7145C26.1266 30.7145 25.4318 31.4093 25.4318 32.2585 25.4318 33.1077 26.1266 33.8024 26.9758 33.8024 27.825 33.8024 28.5198 33.1077 28.5198 32.2585 28.5198 31.4093 27.825 30.7145 26.9758 30.7145Z" transform="matrix(1 0 0 1.00888 999 671.212)"/><path d="M33.1407 30.7145C32.2915 30.7145 31.5967 31.4093 31.5967 32.2585 31.5967 33.1077 32.2915 33.8024 33.1407 33.8024 33.9899 33.8024 34.6847 33.1077 34.6847 32.2585 34.6847 31.4093 33.9899 30.7145 33.1407 30.7145Z" transform="matrix(1 0 0 1.00888 999 671.212)"/><path d="M39.3167 30.7145C38.4675 30.7145 37.7727 31.4093 37.7727 32.2585 37.7727 33.1077 38.4675 33.8024 39.3167 33.8024 40.1659 33.8024 40.8607 33.1077 40.8607 32.2585 40.8607 31.4093 40.1659 30.7145 39.3167 30.7145Z" transform="matrix(1 0 0 1.00888 999 671.212)"/><path d="M26.9758 49.6725C26.1266 49.6725 25.4318 50.3673 25.4318 51.2165 25.4318 52.0657 26.1266 52.7605 26.9758 52.7605 27.825 52.7605 28.5198 52.0657 28.5198 51.2165 28.5198 50.3673 27.825 49.6725 26.9758 49.6725Z" transform="matrix(1 0 0 1.00888 999 671.212)"/><path d="M33.1407 49.6725C32.2915 49.6725 31.5967 50.3673 31.5967 51.2165 31.5967 52.0657 32.2915 52.7605 33.1407 52.7605 33.9899 52.7605 34.6847 52.0657 34.6847 51.2165 34.6847 50.3673 33.9899 49.6725 33.1407 49.6725Z" transform="matrix(1 0 0 1.00888 999 671.212)"/><path d="M39.3167 49.6725C38.4675 49.6725 37.7727 50.3673 37.7727 51.2165 37.7727 52.0657 38.4675 52.7605 39.3167 52.7605 40.1659 52.7605 40.8607 52.0657 40.8607 51.2165 40.8607 50.3673 40.1659 49.6725 39.3167 49.6725Z" transform="matrix(1 0 0 1.00888 999 671.212)"/><path d="M26.9758 68.6305C26.1266 68.6305 25.4318 69.3253 25.4318 70.1745 25.4318 71.0237 26.1266 71.7185 26.9758 71.7185 27.825 71.7185 28.5198 71.0237 28.5198 70.1745 28.5198 69.3253 27.825 68.6305 26.9758 68.6305Z" transform="matrix(1 0 0 1.00888 999 671.212)"/><path d="M33.1407 68.6305C32.2915 68.6305 31.5967 69.3253 31.5967 70.1745 31.5967 71.0237 32.2915 71.7185 33.1407 71.7185 33.9899 71.7185 34.6847 71.0237 34.6847 70.1745 34.6847 69.3253 33.9899 68.6305 33.1407 68.6305Z" transform="matrix(1 0 0 1.00888 999 671.212)"/><path d="M39.3167 68.6305C38.4675 68.6305 37.7727 69.3253 37.7727 70.1745 37.7727 71.0237 38.4675 71.7185 39.3167 71.7185 40.1659 71.7185 40.8607 71.0237 40.8607 70.1745 40.8607 69.3253 40.1659 68.6305 39.3167 68.6305Z" transform="matrix(1 0 0 1.00888 999 671.212)"/></g></svg>