<svg width="105" height="64" xmlns="http://www.w3.org/2000/svg" xmlns:xlink="http://www.w3.org/1999/xlink" xml:space="preserve" overflow="hidden"><defs><clipPath id="clip0"><rect x="482" y="844" width="105" height="64"/></clipPath></defs><g clip-path="url(#clip0)" transform="translate(-482 -844)"><path d="M43.4869 39.2828C43.6083 39.691 43.9614 39.989 44.3807 40.0552 44.8 40.1214 45.2193 39.9338 45.4621 39.5807L47.2497 36.9103 50.7476 40.4083C50.9572 40.6179 51.2331 40.7283 51.531 40.7283 51.829 40.7283 52.1048 40.6069 52.3145 40.4083L54.1903 38.5324C54.6207 38.1021 54.6207 37.4069 54.1903 36.9766L50.6924 33.4786 53.3628 31.691C53.7159 31.4593 53.9034 31.029 53.8372 30.6097 53.771 30.1903 53.4731 29.8372 53.0648 29.7159L41.3572 26.2069C40.971 26.0855 40.5517 26.2069 40.2648 26.4828 39.9779 26.7697 39.8676 27.189 39.989 27.5752L43.4979 39.2828ZM50.1738 31.1503 49.0703 31.8897C48.971 31.9559 48.8828 32.0331 48.7834 32.1214 48.4414 32.4634 48.2538 32.9269 48.2538 33.4124 48.2538 33.8979 48.4414 34.3614 48.7945 34.7034L51.84 37.749 51.531 38.0579 48.4855 35.0124C48.1434 34.6703 47.68 34.4828 47.1945 34.4828 46.5765 34.4828 46.0138 34.7917 45.6717 35.2993L44.9324 36.4138 42.6814 28.9103 50.1848 31.1614Z" transform="matrix(1.0123 0 0 1 482 844.066)"/><path d="M102.621 51.7959 97.4345 51.7959 97.4345 6.02483C97.4345 2.70345 94.731 0 91.4097 0L12.3145 0C8.9931 0 6.28965 2.70345 6.28965 6.02483L6.28965 51.7959 1.10345 51.7959C0.496552 51.7959 0 52.2924 0 52.8993L0 56.6731C0 60.6455 3.2331 63.8676 7.19448 63.8676L96.5186 63.8676C100.491 63.8676 103.724 60.6345 103.724 56.6731L103.724 52.8993C103.724 52.2924 103.228 51.7959 102.621 51.7959ZM8.49655 6.02483C8.49655 3.91724 10.2069 2.2069 12.3145 2.2069L91.3986 2.2069C93.5062 2.2069 95.2166 3.91724 95.2166 6.02483L95.2166 51.7959 62.1021 51.7959C62.1021 51.7959 62.0469 51.7959 62.0138 51.7959L41.6772 51.7959C41.6772 51.7959 41.6221 51.7959 41.589 51.7959L8.49655 51.7959 8.49655 6.02483ZM60.4138 54.0028 59.3545 56.7283 44.3697 56.7283 43.3103 54.0028 60.4138 54.0028ZM101.517 56.6731C101.517 59.4207 99.2772 61.6607 96.5186 61.6607L7.19448 61.6607C4.43586 61.6607 2.2069 59.4207 2.2069 56.6731L2.2069 54.0028 40.9379 54.0028 42.5821 58.229C42.7476 58.6483 43.1559 58.9352 43.6083 58.9352L60.1048 58.9352C60.5572 58.9352 60.9655 58.6593 61.131 58.229L62.7752 54.0028 101.506 54.0028 101.506 56.6731Z" transform="matrix(1.0123 0 0 1 482 844.066)"/><path d="M63.1614 40.0552 87.0621 40.0552C87.669 40.0552 88.1655 39.5586 88.1655 38.9517 88.1655 38.3448 87.669 37.8483 87.0621 37.8483L64.2648 37.8483 64.2648 15.051C64.2648 14.4441 63.7683 13.9476 63.1614 13.9476 62.5545 13.9476 62.0579 14.4441 62.0579 15.051L62.0579 38.9517C62.0579 39.5586 62.5545 40.0552 63.1614 40.0552Z" transform="matrix(1.0123 0 0 1 482 844.066)"/><path d="M68.5793 35.7517C69.7931 35.7517 70.7862 34.7586 70.7862 33.5448 70.7862 32.331 69.7931 31.3379 68.5793 31.3379 67.3655 31.3379 66.3724 32.331 66.3724 33.5448 66.3724 34.7586 67.3655 35.7517 68.5793 35.7517Z" transform="matrix(1.0123 0 0 1 482 844.066)"/><path d="M72.4083 30.3117C73.6221 30.3117 74.6152 29.3186 74.6152 28.1048 74.6152 26.891 73.6221 25.8979 72.4083 25.8979 71.1945 25.8979 70.2014 26.891 70.2014 28.1048 70.2014 29.3186 71.1945 30.3117 72.4083 30.3117Z" transform="matrix(1.0123 0 0 1 482 844.066)"/><path d="M78.7641 30.8634C79.9779 30.8634 80.971 29.8703 80.971 28.6566 80.971 27.4428 79.9779 26.4497 78.7641 26.4497 77.5503 26.4497 76.5572 27.4428 76.5572 28.6566 76.5572 29.8703 77.5503 30.8634 78.7641 30.8634ZM79.8676 28.6566 78.7641 28.6566C78.7641 28.6566 78.7641 28.6566 78.7641 28.6566L79.8676 28.6566Z" transform="matrix(1.0123 0 0 1 482 844.066)"/><path d="M81.6331 25.2469C82.8469 25.2469 83.84 24.2538 83.84 23.04 83.84 21.8262 82.8469 20.8331 81.6331 20.8331 80.4193 20.8331 79.4262 21.8262 79.4262 23.04 79.4262 24.2538 80.4193 25.2469 81.6331 25.2469Z" transform="matrix(1.0123 0 0 1 482 844.066)"/><path d="M87.3159 21.0979C88.5297 21.0979 89.5228 20.1048 89.5228 18.891 89.5228 17.6772 88.5297 16.6841 87.3159 16.6841 86.1021 16.6841 85.109 17.6772 85.109 18.891 85.109 20.1048 86.1021 21.0979 87.3159 21.0979Z" transform="matrix(1.0123 0 0 1 482 844.066)"/><path d="M37.1421 13.8372 21.0538 13.8372 21.0538 12.9103C21.0538 12.3034 20.5572 11.8069 19.9503 11.8069L19.4317 11.8069C18.8248 11.8069 18.3283 12.3034 18.3283 12.9103L18.3283 13.8372 14.6759 13.8372C14.069 13.8372 13.5724 14.3338 13.5724 14.9407 13.5724 15.5476 14.069 16.0441 14.6759 16.0441L18.3283 16.0441 18.3283 16.96C18.3283 17.5669 18.8248 18.0634 19.4317 18.0634L19.9503 18.0634C20.5572 18.0634 21.0538 17.5669 21.0538 16.96L21.0538 16.0441 37.1421 16.0441C37.749 16.0441 38.2455 15.5476 38.2455 14.9407 38.2455 14.3338 37.749 13.8372 37.1421 13.8372Z" transform="matrix(1.0123 0 0 1 482 844.066)"/><path d="M37.1421 23.669 36.6234 23.669C36.0166 23.669 35.52 24.1655 35.52 24.7724L35.52 25.6993 14.6869 25.6993C14.08 25.6993 13.5834 26.1959 13.5834 26.8028 13.5834 27.4097 14.08 27.9062 14.6869 27.9062L35.52 27.9062 35.52 28.8331C35.52 29.44 36.0166 29.9366 36.6234 29.9366L37.1421 29.9366C37.749 29.9366 38.2455 29.44 38.2455 28.8331L38.2455 24.7834C38.2455 24.1766 37.749 23.68 37.1421 23.68Z" transform="matrix(1.0123 0 0 1 482 844.066)"/><path d="M37.1421 37.5393 29.2083 37.5393 29.2083 37.0317C29.2083 36.4248 28.7117 35.9283 28.1048 35.9283L27.5862 35.9283C26.9793 35.9283 26.4828 36.4248 26.4828 37.0317L26.4828 37.5393 14.6869 37.5393C14.08 37.5393 13.5834 38.0359 13.5834 38.6428 13.5834 39.2497 14.08 39.7462 14.6869 39.7462L26.4828 39.7462 26.4828 41.0814C26.4828 41.6883 26.9793 42.1848 27.5862 42.1848L28.1048 42.1848C28.7117 42.1848 29.2083 41.6883 29.2083 41.0814L29.2083 39.7462 37.1421 39.7462C37.749 39.7462 38.2455 39.2497 38.2455 38.6428 38.2455 38.0359 37.749 37.5393 37.1421 37.5393Z" transform="matrix(1.0123 0 0 1 482 844.066)"/></g></svg>