<svg width="78" height="64" xmlns="http://www.w3.org/2000/svg" xmlns:xlink="http://www.w3.org/1999/xlink" xml:space="preserve" overflow="hidden"><defs><clipPath id="clip0"><rect x="836" y="540" width="78" height="64"/></clipPath></defs><g clip-path="url(#clip0)" transform="translate(-836 -540)"><path d="M74.3357 24.2921 74.3357 15.4048C75.8827 14.933 77.0129 13.5066 77.0129 11.8169 77.0129 9.73221 75.3232 8.04252 73.2385 8.04252 72.24 8.04252 71.3403 8.43751 70.671 9.06292L62.9906 4.63021C63.0564 4.35591 63.1003 4.07063 63.1003 3.77439 63.1003 1.6897 61.4106 1.46177e-15 59.3259 1.46177e-15 57.2412 1.46177e-15 55.5515 1.6897 55.5515 3.77439 55.5515 4.07063 55.5954 4.35591 55.6612 4.63021L47.9808 9.06292C47.3005 8.43751 46.4008 8.04252 45.4133 8.04252 43.3286 8.04252 41.639 9.73221 41.639 11.8169 41.639 13.5176 42.7691 14.933 44.3161 15.4048L44.3161 24.2921C42.7691 24.7639 41.639 26.1903 41.639 27.88 41.639 28.1762 41.6828 28.4615 41.7487 28.7358L34.0024 33.2124C33.355 32.6858 32.5321 32.3456 31.6324 32.3456 30.634 32.3456 29.7343 32.7406 29.065 33.366L21.3845 28.9333C21.4504 28.659 21.4943 28.3737 21.4943 28.0775 21.4943 25.9928 19.8046 24.3031 17.7199 24.3031 15.6352 24.3031 13.9455 25.9928 13.9455 28.0775 13.9455 28.3737 13.9894 28.659 14.0552 28.9333L6.37476 33.366C5.6945 32.7296 4.79479 32.3456 3.8073 32.3456 1.72261 32.3456 0.0329162 34.0353 0.0329162 36.12 0.0329162 37.8207 1.16304 39.2361 2.7101 39.7188L2.7101 48.6062C1.16304 49.078 0.0329162 50.5044 0.0329162 52.205 0.0329162 54.2897 1.72261 55.9794 3.8073 55.9794 4.80576 55.9794 5.70547 55.5844 6.37476 54.959L14.0552 59.3917C13.9894 59.666 13.9455 59.9513 13.9455 60.2476 13.9455 62.3322 15.6352 64.0219 17.7199 64.0219 19.8046 64.0219 21.4943 62.3322 21.4943 60.2476 21.4943 59.9513 21.4504 59.666 21.3845 59.3917L29.065 54.959C29.7452 55.5954 30.645 55.9794 31.6324 55.9794 33.7171 55.9794 35.4068 54.2897 35.4068 52.205 35.4068 50.5044 34.2767 49.089 32.7296 48.6062L32.7296 39.7188C34.2767 39.247 35.4068 37.8207 35.4068 36.12 35.4068 35.736 35.33 35.3849 35.2313 35.0338L42.8568 30.634C43.5371 31.2704 44.4368 31.6544 45.4243 31.6544 46.4118 31.6544 47.3225 31.2594 47.9918 30.634L55.6722 35.0667C55.6064 35.341 55.5625 35.6263 55.5625 35.9225 55.5625 38.0072 57.2522 39.6969 59.3369 39.6969 61.4216 39.6969 63.1113 38.0072 63.1113 35.9225 63.1113 35.6263 63.0674 35.341 63.0015 35.0667L70.682 30.634C71.3623 31.2704 72.251 31.6544 73.2494 31.6544 75.3341 31.6544 77.0238 29.9647 77.0238 27.88 77.0238 26.1793 75.8937 24.7639 74.3466 24.2921ZM69.4641 27.88C69.4641 28.1762 69.508 28.4615 69.5738 28.7358L61.8934 33.1685C61.2131 32.5321 60.3134 32.1481 59.3259 32.1481 58.3384 32.1481 57.4277 32.5431 56.7584 33.1685L49.078 28.7358C49.1438 28.4615 49.1877 28.1762 49.1877 27.88 49.1877 26.1793 48.0576 24.7639 46.5105 24.2921L46.5105 15.4048C48.0576 14.933 49.1877 13.5066 49.1877 11.8169 49.1877 11.5207 49.1438 11.2354 49.078 10.9611L56.7584 6.52837C57.4387 7.15378 58.3384 7.54877 59.3259 7.54877 60.3134 7.54877 61.2241 7.15378 61.8934 6.52837L69.5738 10.9611C69.508 11.2354 69.4641 11.5207 69.4641 11.8169 69.4641 13.5176 70.5942 14.933 72.1413 15.4048L72.1413 24.2921C70.5942 24.7639 69.4641 26.1903 69.4641 27.88ZM73.2385 10.226C74.1053 10.226 74.8184 10.9391 74.8184 11.8059 74.8184 12.6727 74.1053 13.3859 73.2385 13.3859 72.3717 13.3859 71.6585 12.6727 71.6585 11.8059 71.6585 10.9391 72.3717 10.226 73.2385 10.226ZM59.3149 2.19441C60.1817 2.19441 60.8949 2.90759 60.8949 3.77439 60.8949 4.64118 60.1817 5.35436 59.3149 5.35436 58.4481 5.35436 57.735 4.64118 57.735 3.77439 57.735 2.90759 58.4481 2.19441 59.3149 2.19441ZM43.8114 11.8169C43.8114 10.9501 44.5246 10.2369 45.3914 10.2369 46.2582 10.2369 46.9714 10.9501 46.9714 11.8169 46.9714 12.6837 46.2582 13.3969 45.3914 13.3969 44.5246 13.3969 43.8114 12.6837 43.8114 11.8169ZM27.8251 52.1941C27.8251 52.4903 27.869 52.7756 27.9349 53.0499L20.2544 57.4826C19.5741 56.8462 18.6744 56.4512 17.687 56.4512 16.6995 56.4512 15.7888 56.8462 15.1195 57.4716L7.43905 53.0389C7.50489 52.7646 7.54877 52.4793 7.54877 52.1831 7.54877 50.4824 6.41865 49.067 4.87159 48.5843L4.87159 39.6969C6.41865 39.2251 7.54877 37.7987 7.54877 36.0981 7.54877 35.8018 7.50489 35.5165 7.43905 35.2422L15.1195 30.8095C15.7998 31.4349 16.6995 31.8299 17.687 31.8299 18.6744 31.8299 19.5851 31.4349 20.2544 30.8095L27.9349 35.2422C27.869 35.5165 27.8251 35.8018 27.8251 36.0981 27.8251 37.7987 28.9553 39.2141 30.5023 39.6969L30.5023 48.5843C28.9553 49.0561 27.8251 50.4824 27.8251 52.1831ZM17.687 26.5085C18.5537 26.5085 19.2669 27.2217 19.2669 28.0885 19.2669 28.9553 18.5537 29.6684 17.687 29.6684 16.8202 29.6684 16.107 28.9553 16.107 28.0885 16.107 27.2217 16.8202 26.5085 17.687 26.5085ZM2.18344 36.12C2.18344 35.2532 2.89662 34.54 3.76342 34.54 4.63021 34.54 5.34339 35.2532 5.34339 36.12 5.34339 36.9868 4.63021 37.7 3.76342 37.7 2.89662 37.7 2.18344 36.9868 2.18344 36.12ZM3.76342 53.774C2.89662 53.774 2.18344 53.0609 2.18344 52.1941 2.18344 51.3273 2.89662 50.6141 3.76342 50.6141 4.63021 50.6141 5.34339 51.3273 5.34339 52.1941 5.34339 53.0609 4.63021 53.774 3.76342 53.774ZM17.687 61.8056C16.8202 61.8056 16.107 61.0924 16.107 60.2256 16.107 59.3588 16.8202 58.6456 17.687 58.6456 18.5537 58.6456 19.2669 59.3588 19.2669 60.2256 19.2669 61.0924 18.5537 61.8056 17.687 61.8056ZM33.1905 52.1941C33.1905 53.0609 32.4773 53.774 31.6105 53.774 30.7437 53.774 30.0305 53.0609 30.0305 52.1941 30.0305 51.3273 30.7437 50.6141 31.6105 50.6141 32.4773 50.6141 33.1905 51.3273 33.1905 52.1941ZM31.6105 37.7C30.7437 37.7 30.0305 36.9868 30.0305 36.12 30.0305 35.2532 30.7437 34.54 31.6105 34.54 32.4773 34.54 33.1905 35.2532 33.1905 36.12 33.1905 36.9868 32.4773 37.7 31.6105 37.7ZM45.4024 29.46C44.5356 29.46 43.8224 28.7468 43.8224 27.88 43.8224 27.0132 44.5356 26.3 45.4024 26.3 46.2692 26.3 46.9823 27.0132 46.9823 27.88 46.9823 28.7468 46.2692 29.46 45.4024 29.46ZM59.3259 37.4915C58.4591 37.4915 57.7459 36.7783 57.7459 35.9115 57.7459 35.0447 58.4591 34.3316 59.3259 34.3316 60.1927 34.3316 60.9059 35.0447 60.9059 35.9115 60.9059 36.7783 60.1927 37.4915 59.3259 37.4915ZM73.2494 29.46C72.3827 29.46 71.6695 28.7468 71.6695 27.88 71.6695 27.0132 72.3827 26.3 73.2494 26.3 74.1162 26.3 74.8294 27.0132 74.8294 27.88 74.8294 28.7468 74.1162 29.46 73.2494 29.46Z" transform="matrix(1.00982 0 0 1 836.115 540)"/></g></svg>